<?xml version="1.0"?><svg xmlns="http://www.w3.org/2000/svg" width="336" height="336"><rect x="0" y="0" width="100%" height="100%" fill="rgb(162, 155, 254)" /><circle cx="28" cy="28" r="23.333333333333" fill="none" stroke="#222" style="opacity:0.11533333333333;stroke-width:9.3333333333333px;" /><circle cx="28" cy="28" r="11.666666666667" fill="#222" fill-opacity="0.063333333333333" /><circle cx="84" cy="28" r="23.333333333333" fill="none" stroke="#222" style="opacity:0.080666666666667;stroke-width:9.3333333333333px;" /><circle cx="84" cy="28" r="11.666666666667" fill="#ddd" fill-opacity="0.054666666666667" /><circle cx="140" cy="28" r="23.333333333333" fill="none" stroke="#ddd" style="opacity:0.10666666666667;stroke-width:9.3333333333333px;" /><circle cx="140" cy="28" r="11.666666666667" fill="#222" fill-opacity="0.046" /><circle cx="196" cy="28" r="23.333333333333" fill="none" stroke="#222" style="opacity:0.13266666666667;stroke-width:9.3333333333333px;" /><circle cx="196" cy="28" r="11.666666666667" fill="#ddd" fill-opacity="0.037333333333333" /><circle cx="252" cy="28" r="23.333333333333" fill="none" stroke="#222" style="opacity:0.063333333333333;stroke-width:9.3333333333333px;" /><circle cx="252" cy="28" r="11.666666666667" fill="#222" fill-opacity="0.028666666666667" /><circle cx="308" cy="28" r="23.333333333333" fill="none" stroke="#ddd" style="opacity:0.072;stroke-width:9.3333333333333px;" /><circle cx="308" cy="28" r="11.666666666667" fill="#ddd" fill-opacity="0.124" /><circle cx="28" cy="84" r="23.333333333333" fill="none" stroke="#ddd" style="opacity:0.124;stroke-width:9.3333333333333px;" /><circle cx="28" cy="84" r="11.666666666667" fill="#ddd" fill-opacity="0.089333333333333" /><circle cx="84" cy="84" r="23.333333333333" fill="none" stroke="#222" style="opacity:0.028666666666667;stroke-width:9.3333333333333px;" /><circle cx="84" cy="84" r="11.666666666667" fill="#ddd" fill-opacity="0.054666666666667" /><circle cx="140" cy="84" r="23.333333333333" fill="none" stroke="#222" style="opacity:0.15;stroke-width:9.3333333333333px;" /><circle cx="140" cy="84" r="11.666666666667" fill="#222" fill-opacity="0.063333333333333" /><circle cx="196" cy="84" r="23.333333333333" fill="none" stroke="#ddd" style="opacity:0.072;stroke-width:9.3333333333333px;" /><circle cx="196" cy="84" r="11.666666666667" fill="#222" fill-opacity="0.098" /><circle cx="252" cy="84" r="23.333333333333" fill="none" stroke="#ddd" style="opacity:0.02;stroke-width:9.3333333333333px;" /><circle cx="252" cy="84" r="11.666666666667" fill="#222" fill-opacity="0.13266666666667" /><circle cx="308" cy="84" r="23.333333333333" fill="none" stroke="#ddd" style="opacity:0.124;stroke-width:9.3333333333333px;" /><circle cx="308" cy="84" r="11.666666666667" fill="#222" fill-opacity="0.080666666666667" /><circle cx="28" cy="140" r="23.333333333333" fill="none" stroke="#ddd" style="opacity:0.054666666666667;stroke-width:9.3333333333333px;" /><circle cx="28" cy="140" r="11.666666666667" fill="#222" fill-opacity="0.063333333333333" /><circle cx="84" cy="140" r="23.333333333333" fill="none" stroke="#ddd" style="opacity:0.10666666666667;stroke-width:9.3333333333333px;" /><circle cx="84" cy="140" r="11.666666666667" fill="#222" fill-opacity="0.080666666666667" /><circle cx="140" cy="140" r="23.333333333333" fill="none" stroke="#222" style="opacity:0.098;stroke-width:9.3333333333333px;" /><circle cx="140" cy="140" r="11.666666666667" fill="#222" fill-opacity="0.15" /><circle cx="196" cy="140" r="23.333333333333" fill="none" stroke="#ddd" style="opacity:0.037333333333333;stroke-width:9.3333333333333px;" /><circle cx="196" cy="140" r="11.666666666667" fill="#222" fill-opacity="0.098" /><circle cx="252" cy="140" r="23.333333333333" fill="none" stroke="#222" style="opacity:0.13266666666667;stroke-width:9.3333333333333px;" /><circle cx="252" cy="140" r="11.666666666667" fill="#ddd" fill-opacity="0.02" /><circle cx="308" cy="140" r="23.333333333333" fill="none" stroke="#ddd" style="opacity:0.10666666666667;stroke-width:9.3333333333333px;" /><circle cx="308" cy="140" r="11.666666666667" fill="#222" fill-opacity="0.11533333333333" /><circle cx="28" cy="196" r="23.333333333333" fill="none" stroke="#222" style="opacity:0.063333333333333;stroke-width:9.3333333333333px;" /><circle cx="28" cy="196" r="11.666666666667" fill="#ddd" fill-opacity="0.14133333333333" /><circle cx="84" cy="196" r="23.333333333333" fill="none" stroke="#222" style="opacity:0.11533333333333;stroke-width:9.3333333333333px;" /><circle cx="84" cy="196" r="11.666666666667" fill="#ddd" fill-opacity="0.10666666666667" /><circle cx="140" cy="196" r="23.333333333333" fill="none" stroke="#ddd" style="opacity:0.10666666666667;stroke-width:9.3333333333333px;" /><circle cx="140" cy="196" r="11.666666666667" fill="#222" fill-opacity="0.11533333333333" /><circle cx="196" cy="196" r="23.333333333333" fill="none" stroke="#ddd" style="opacity:0.14133333333333;stroke-width:9.3333333333333px;" /><circle cx="196" cy="196" r="11.666666666667" fill="#222" fill-opacity="0.063333333333333" /><circle cx="252" cy="196" r="23.333333333333" fill="none" stroke="#222" style="opacity:0.11533333333333;stroke-width:9.3333333333333px;" /><circle cx="252" cy="196" r="11.666666666667" fill="#ddd" fill-opacity="0.10666666666667" /><circle cx="308" cy="196" r="23.333333333333" fill="none" stroke="#ddd" style="opacity:0.02;stroke-width:9.3333333333333px;" /><circle cx="308" cy="196" r="11.666666666667" fill="#222" fill-opacity="0.13266666666667" /><circle cx="28" cy="252" r="23.333333333333" fill="none" stroke="#222" style="opacity:0.098;stroke-width:9.3333333333333px;" /><circle cx="28" cy="252" r="11.666666666667" fill="#ddd" fill-opacity="0.037333333333333" /><circle cx="84" cy="252" r="23.333333333333" fill="none" stroke="#222" style="opacity:0.15;stroke-width:9.3333333333333px;" /><circle cx="84" cy="252" r="11.666666666667" fill="#222" fill-opacity="0.098" /><circle cx="140" cy="252" r="23.333333333333" fill="none" stroke="#222" style="opacity:0.080666666666667;stroke-width:9.3333333333333px;" /><circle cx="140" cy="252" r="11.666666666667" fill="#ddd" fill-opacity="0.10666666666667" /><circle cx="196" cy="252" r="23.333333333333" fill="none" stroke="#222" style="opacity:0.063333333333333;stroke-width:9.3333333333333px;" /><circle cx="196" cy="252" r="11.666666666667" fill="#ddd" fill-opacity="0.054666666666667" /><circle cx="252" cy="252" r="23.333333333333" fill="none" stroke="#222" style="opacity:0.080666666666667;stroke-width:9.3333333333333px;" /><circle cx="252" cy="252" r="11.666666666667" fill="#ddd" fill-opacity="0.124" /><circle cx="308" cy="252" r="23.333333333333" fill="none" stroke="#222" style="opacity:0.13266666666667;stroke-width:9.3333333333333px;" /><circle cx="308" cy="252" r="11.666666666667" fill="#ddd" fill-opacity="0.02" /><circle cx="28" cy="308" r="23.333333333333" fill="none" stroke="#222" style="opacity:0.098;stroke-width:9.3333333333333px;" /><circle cx="28" cy="308" r="11.666666666667" fill="#ddd" fill-opacity="0.072" /><circle cx="84" cy="308" r="23.333333333333" fill="none" stroke="#222" style="opacity:0.063333333333333;stroke-width:9.3333333333333px;" /><circle cx="84" cy="308" r="11.666666666667" fill="#222" fill-opacity="0.15" /><circle cx="140" cy="308" r="23.333333333333" fill="none" stroke="#ddd" style="opacity:0.054666666666667;stroke-width:9.3333333333333px;" /><circle cx="140" cy="308" r="11.666666666667" fill="#222" fill-opacity="0.028666666666667" /><circle cx="196" cy="308" r="23.333333333333" fill="none" stroke="#ddd" style="opacity:0.089333333333333;stroke-width:9.3333333333333px;" /><circle cx="196" cy="308" r="11.666666666667" fill="#ddd" fill-opacity="0.124" /><circle cx="252" cy="308" r="23.333333333333" fill="none" stroke="#ddd" style="opacity:0.124;stroke-width:9.3333333333333px;" /><circle cx="252" cy="308" r="11.666666666667" fill="#ddd" fill-opacity="0.072" /><circle cx="308" cy="308" r="23.333333333333" fill="none" stroke="#222" style="opacity:0.028666666666667;stroke-width:9.3333333333333px;" /><circle cx="308" cy="308" r="11.666666666667" fill="#222" fill-opacity="0.063333333333333" /></svg>